<svg width="338" height="144" viewBox="0 0 338 144" fill="none" xmlns="http://www.w3.org/2000/svg">
<g filter="url(#filter0_d_338_7)">
<mask id="path-1-inside-1_338_7" fill="white">
<path d="M246 144C246 115.091 234.516 87.3668 214.075 66.9254C193.633 46.4839 165.909 35 137 35C108.091 35 80.3668 46.4839 59.9254 66.9254C39.4839 87.3668 28 115.091 28 144L137 144H246Z"/>
</mask>
<path d="M246 144C246 115.091 234.516 87.3668 214.075 66.9254C193.633 46.4839 165.909 35 137 35C108.091 35 80.3668 46.4839 59.9254 66.9254C39.4839 87.3668 28 115.091 28 144L137 144H246Z" fill="url(#paint0_linear_338_7)" shape-rendering="crispEdges"/>
<path d="M246 144C246 115.091 234.516 87.3668 214.075 66.9254C193.633 46.4839 165.909 35 137 35C108.091 35 80.3668 46.4839 59.9254 66.9254C39.4839 87.3668 28 115.091 28 144L137 144H246Z" stroke="black" stroke-width="2" shape-rendering="crispEdges" mask="url(#path-1-inside-1_338_7)"/>
</g>
<defs>
<filter id="filter0_d_338_7" x="0" y="0" width="338" height="229" filterUnits="userSpaceOnUse" color-interpolation-filters="sRGB">
<feFlood flood-opacity="0" result="BackgroundImageFix"/>
<feColorMatrix in="SourceAlpha" type="matrix" values="0 0 0 0 0 0 0 0 0 0 0 0 0 0 0 0 0 0 127 0" result="hardAlpha"/>
<feOffset dx="32" dy="25"/>
<feGaussianBlur stdDeviation="30"/>
<feComposite in2="hardAlpha" operator="out"/>
<feColorMatrix type="matrix" values="0 0 0 0 0.525 0 0 0 0 0 0 0 0 0 0 0 0 0 1 0"/>
<feBlend mode="normal" in2="BackgroundImageFix" result="effect1_dropShadow_338_7"/>
<feBlend mode="normal" in="SourceGraphic" in2="effect1_dropShadow_338_7" result="shape"/>
</filter>
<linearGradient id="paint0_linear_338_7" x1="137" y1="35" x2="137" y2="253" gradientUnits="userSpaceOnUse">
<stop stop-color="#585858"/>
<stop offset="0.46875" stop-color="white" stop-opacity="0.46"/>
</linearGradient>
</defs>
</svg>
