<svg width="1326" height="614" viewBox="0 0 1326 614" fill="none" xmlns="http://www.w3.org/2000/svg">
<g filter="url(#filter0_d_307_90)">
<mask id="path-1-inside-1_307_90" fill="white">
<path d="M1069 628C1069 486.109 1013.27 350.03 914.06 249.698C814.853 149.366 680.3 93 540 93C399.701 93 265.147 149.366 165.941 249.698C66.7338 350.03 11 486.109 11 628L540 628H1069Z"/>
</mask>
<path d="M1069 628C1069 486.109 1013.27 350.03 914.06 249.698C814.853 149.366 680.3 93 540 93C399.701 93 265.147 149.366 165.941 249.698C66.7338 350.03 11 486.109 11 628L540 628H1069Z" fill="url(#paint0_linear_307_90)" shape-rendering="crispEdges"/>
<path d="M1069 628C1069 486.109 1013.27 350.03 914.06 249.698C814.853 149.366 680.3 93 540 93C399.701 93 265.147 149.366 165.941 249.698C66.7338 350.03 11 486.109 11 628L540 628H1069Z" stroke="black" stroke-width="16" shape-rendering="crispEdges" mask="url(#path-1-inside-1_307_90)"/>
</g>
<defs>
<filter id="filter0_d_307_90" x="0" y="0" width="1326" height="803" filterUnits="userSpaceOnUse" color-interpolation-filters="sRGB">
<feFlood flood-opacity="0" result="BackgroundImageFix"/>
<feColorMatrix in="SourceAlpha" type="matrix" values="0 0 0 0 0 0 0 0 0 0 0 0 0 0 0 0 0 0 127 0" result="hardAlpha"/>
<feMorphology radius="17" operator="dilate" in="SourceAlpha" result="effect1_dropShadow_307_90"/>
<feOffset dx="123" dy="41"/>
<feGaussianBlur stdDeviation="58.5"/>
<feComposite in2="hardAlpha" operator="out"/>
<feColorMatrix type="matrix" values="0 0 0 0 0.207843 0 0 0 0 0.321569 0 0 0 0 0.47451 0 0 0 1 0"/>
<feBlend mode="normal" in2="BackgroundImageFix" result="effect1_dropShadow_307_90"/>
<feBlend mode="normal" in="SourceGraphic" in2="effect1_dropShadow_307_90" result="shape"/>
</filter>
<linearGradient id="paint0_linear_307_90" x1="540" y1="93" x2="540" y2="1163" gradientUnits="userSpaceOnUse">
<stop stop-color="#585858"/>
<stop offset="0.46875" stop-color="white" stop-opacity="0.46"/>
</linearGradient>
</defs>
</svg>
