<svg width="1328" height="579" viewBox="0 0 1328 579" fill="none" xmlns="http://www.w3.org/2000/svg">
<g filter="url(#filter0_d_307_122)">
<mask id="path-1-inside-1_307_122" fill="white">
<path d="M1070.96 630.592C1070.96 488.234 1015.13 351.706 915.735 251.044C816.344 150.382 681.542 93.8301 540.982 93.8301C400.422 93.8301 265.619 150.382 166.228 251.044C66.8372 351.706 11 488.234 11 630.592L540.982 630.592H1070.96Z"/>
</mask>
<path d="M1070.96 630.592C1070.96 488.234 1015.13 351.706 915.735 251.044C816.344 150.382 681.542 93.8301 540.982 93.8301C400.422 93.8301 265.619 150.382 166.228 251.044C66.8372 351.706 11 488.234 11 630.592L540.982 630.592H1070.96Z" fill="url(#paint0_linear_307_122)" shape-rendering="crispEdges"/>
<path d="M1070.96 630.592C1070.96 488.234 1015.13 351.706 915.735 251.044C816.344 150.382 681.542 93.8301 540.982 93.8301C400.422 93.8301 265.619 150.382 166.228 251.044C66.8372 351.706 11 488.234 11 630.592L540.982 630.592H1070.96Z" stroke="black" stroke-width="16" shape-rendering="crispEdges" mask="url(#path-1-inside-1_307_122)"/>
</g>
<defs>
<filter id="filter0_d_307_122" x="0" y="0.830078" width="1327.96" height="804.762" filterUnits="userSpaceOnUse" color-interpolation-filters="sRGB">
<feFlood flood-opacity="0" result="BackgroundImageFix"/>
<feColorMatrix in="SourceAlpha" type="matrix" values="0 0 0 0 0 0 0 0 0 0 0 0 0 0 0 0 0 0 127 0" result="hardAlpha"/>
<feMorphology radius="17" operator="dilate" in="SourceAlpha" result="effect1_dropShadow_307_122"/>
<feOffset dx="123" dy="41"/>
<feGaussianBlur stdDeviation="58.5"/>
<feComposite in2="hardAlpha" operator="out"/>
<feColorMatrix type="matrix" values="0 0 0 0 0.207843 0 0 0 0 0.321569 0 0 0 0 0.47451 0 0 0 1 0"/>
<feBlend mode="normal" in2="BackgroundImageFix" result="effect1_dropShadow_307_122"/>
<feBlend mode="normal" in="SourceGraphic" in2="effect1_dropShadow_307_122" result="shape"/>
</filter>
<linearGradient id="paint0_linear_307_122" x1="540.982" y1="93.8301" x2="540.982" y2="1167.35" gradientUnits="userSpaceOnUse">
<stop stop-color="#585858"/>
<stop offset="0.46875" stop-color="white" stop-opacity="0.46"/>
</linearGradient>
</defs>
</svg>
